# xmcd CD database file
#
# Track frame offsets:
#	150
#	26384
#	65578
#	79797
#	93224
#	118341
#	152493
#	164689
#	200399
#	269224
#	282114
#	293525
#
# Disc length: 4342 seconds
#
# Revision: 0
# Processed by: cddbd v1.5.2PL0 Copyright (c) Steve Scherf et al.
# Submitted via: CDex 1.70beta2
#
DISCID=a810f40c
DTITLE=Various Artist - 夜景ジャズ  AROMA-028
DYEAR=2016
DGENRE=Jazz
TTITLE0=Fran Dance
TTITLE1=Mysterious Blues
TTITLE2=I Can’t Give You Anything But Love
TTITLE3=That Old Black Magic
TTITLE4=Joy Spring
TTITLE5=Night And Day
TTITLE6=A Foggy Day
TTITLE7=Bye Bye Blackbird
TTITLE8=The Man I Love
TTITLE9=Bugle Boogie
TTITLE10=Swanee River Boogie
TTITLE11=I Got It Bad
EXTD=YEAR: 2016
EXTT0=
EXTT1=
EXTT2=
EXTT3=
EXTT4=
EXTT5=
EXTT6=
EXTT7=
EXTT8=
EXTT9=
EXTT10=
EXTT11=
PLAYORDER=
